<?xml version="1.0" standalone="no"?>
<!DOCTYPE svg PUBLIC "-//W3C//DTD SVG 20010904//EN"
 "http://www.w3.org/TR/2001/REC-SVG-20010904/DTD/svg10.dtd">
<svg version="1.0" xmlns="http://www.w3.org/2000/svg"
 width="190.000000pt" height="190.000000pt" viewBox="0 0 190.000000 190.000000"
 preserveAspectRatio="xMidYMid meet">
<metadata>
Created by potrace 1.11, written by Peter Selinger 2001-2013
</metadata>
<g transform="translate(0.000000,190.000000) scale(0.100000,-0.100000)"
fill="#000000" stroke="none">
<path d="M0 949 c0 -641 3 -948 10 -944 6 4 7 12 3 18 -4 7 1 6 11 -2 9 -8 16
-10 15 -5 -4 20 2 28 11 14 7 -12 11 -10 20 10 l10 25 -3 -27 c-3 -19 0 -28
10 -28 8 0 11 5 7 12 -5 7 -1 10 12 6 10 -2 27 4 37 14 9 10 13 18 9 18 -5 0
-12 -3 -16 -7 -11 -11 -35 -12 -42 -2 -3 5 -2 9 3 8 4 -1 10 -1 13 1 18 6 60
13 88 14 17 0 32 4 32 8 0 4 7 8 16 8 9 0 12 -5 8 -13 -4 -6 11 7 34 30 23 23
57 74 77 113 38 77 69 126 96 150 37 32 59 49 81 64 24 16 25 15 71 -47 26
-36 45 -72 43 -83 -2 -10 -1 -13 1 -7 13 37 45 -15 57 -91 12 -77 16 -85 41
-80 14 2 25 -2 29 -12 3 -8 11 -12 16 -9 6 4 17 2 25 -5 10 -8 16 -7 27 8 7
11 16 20 21 20 27 2 26 11 -2 11 l-33 1 23 20 24 19 -24 1 c-32 0 -23 8 18 15
21 4 30 2 26 -5 -11 -18 24 -23 48 -7 50 34 324 301 366 357 14 19 29 37 32
40 4 3 21 32 40 64 l33 60 11 -45 c14 -63 22 -71 97 -103 36 -15 74 -36 84
-47 9 -10 21 -19 27 -19 15 0 127 -83 177 -132 90 -86 80 -174 80 736 l0 806
-950 0 -950 0 0 -951z m580 551 c10 0 25 -6 32 -13 13 -13 44 -11 182 9 33 5
38 4 33 -9 -4 -12 -2 -14 10 -10 9 4 19 -1 25 -10 5 -10 14 -17 20 -17 6 0 17
-8 25 -17 8 -10 11 -12 7 -4 -4 9 -3 12 3 8 6 -4 16 -20 23 -37 7 -17 17 -27
24 -23 6 3 6 0 -1 -8 -15 -15 -18 -53 -4 -45 16 10 19 -18 5 -52 -11 -28 -11
-34 2 -39 11 -4 12 -8 3 -20 -7 -8 -8 -13 -3 -12 23 4 33 -2 27 -17 -3 -9 -12
-13 -21 -9 -8 3 -18 1 -22 -4 -3 -6 -26 -12 -50 -15 -115 -13 -146 -18 -154
-26 -5 -5 -10 -28 -12 -51 -2 -37 -15 -58 -35 -59 -11 0 -16 60 -6 67 11 7
-19 26 -48 30 -10 2 -22 7 -25 11 -3 4 -40 7 -83 7 -66 0 -81 -3 -93 -19 -17
-25 -29 -15 -15 12 15 28 14 62 -2 62 -7 0 -14 -14 -15 -32 -2 -18 -5 -34 -8
-37 -12 -12 9 195 23 239 39 115 103 193 126 154 4 -8 16 -14 27 -14z m340
-471 c0 -5 -4 -9 -10 -9 -5 0 -10 7 -10 16 0 8 5 12 10 9 6 -3 10 -10 10 -16z
m520 3 c0 -10 5 -23 11 -29 5 -5 9 -30 7 -54 l-4 -44 -8 40 c-5 22 -15 47 -23
56 -7 9 -11 24 -7 33 8 22 24 21 24 -2z m-905 -40 c-8 -9 -25 20 -18 31 3 5
10 2 15 -7 6 -10 7 -20 3 -24z m285 24 c0 -3 -4 -8 -10 -11 -5 -3 -10 -1 -10
4 0 6 5 11 10 11 6 0 10 -2 10 -4z m305 -37 c-2 -17 -8 -35 -15 -39 -9 -6 -9
-9 0 -15 6 -4 9 -13 6 -20 -3 -8 0 -16 7 -19 7 -2 4 -5 -5 -5 -11 -1 -15 -6
-12 -16 4 -8 11 -12 18 -9 6 3 4 0 -4 -8 -26 -23 -24 -41 3 -24 21 15 23 14
25 -8 1 -14 -5 -27 -14 -30 -12 -5 -15 -2 -10 11 5 15 4 15 -9 -1 -14 -18 -15
-18 -15 -2 0 9 -4 14 -10 11 -5 -3 -7 0 -5 7 3 8 0 21 -7 31 -11 15 -13 13
-12 -15 2 -54 13 -70 42 -63 25 6 25 5 -9 -33 -19 -21 -36 -38 -39 -36 -3 1
-12 -1 -20 -7 -12 -7 -11 -9 5 -9 16 0 17 -2 5 -10 -10 -6 -21 -4 -34 8 -11 9
-16 12 -13 5 4 -6 4 -13 0 -16 -5 -2 -2 -2 6 0 12 3 12 1 1 -13 -11 -12 -11
-20 -2 -34 9 -15 8 -19 -5 -24 -11 -5 -14 -2 -9 9 3 9 -1 18 -9 21 -8 4 -20
24 -26 45 -7 21 -16 39 -21 39 -5 0 -6 6 -2 13 5 8 2 7 -9 -2 -10 -8 -18 -12
-20 -10 -21 37 -27 51 -27 65 0 16 1 16 18 1 21 -19 32 -22 32 -8 0 5 -18 22
-40 38 -49 35 -53 45 -29 72 11 12 15 21 9 21 -14 0 -13 27 3 32 6 3 23 1 37
-3 l25 -7 -24 -1 c-20 -1 -21 -3 -11 -16 7 -8 20 -15 30 -15 13 0 16 6 12 25
-3 19 1 27 19 34 14 5 28 5 33 0 13 -12 26 -11 26 2 0 5 -5 7 -12 3 -6 -4 -8
-3 -5 3 4 6 18 8 32 5 15 -2 25 0 25 7 0 9 37 32 66 41 1 0 0 -14 -1 -31z
m-425 6 c10 -12 10 -15 -2 -15 -8 0 -15 7 -15 15 0 8 1 15 2 15 2 0 8 -7 15
-15z m-209 -68 c34 -36 43 -39 82 -20 32 16 51 9 44 -17 -3 -14 0 -17 12 -13
12 3 11 0 -4 -12 -11 -9 -19 -20 -18 -25 2 -5 -4 -7 -11 -4 -9 4 -18 -6 -27
-29 -6 -19 -21 -40 -32 -46 -10 -7 -17 -9 -14 -4 3 4 -5 8 -17 8 -16 0 -22 -5
-19 -16 3 -9 -1 -20 -8 -24 -8 -5 -10 -4 -5 3 4 7 4 12 -1 12 -4 0 -8 28 -8
63 0 34 -6 84 -12 111 -7 27 -10 53 -6 59 5 8 8 7 11 -1 2 -7 17 -27 33 -45z
m192 6 c-1 -21 -5 -49 -8 -63 -4 -16 -3 -20 2 -13 7 10 13 8 25 -6 9 -11 14
-22 11 -25 -4 -3 -1 -6 5 -6 21 0 13 -39 -10 -51 -13 -7 -24 -12 -26 -11 -45
26 -61 31 -65 19 -4 -7 -6 -6 -6 4 -1 9 10 36 23 61 13 25 27 63 31 86 8 52
21 55 18 5z m-226 -155 c-3 -8 -6 -5 -6 6 -1 11 2 17 5 13 3 -3 4 -12 1 -19z
m328 -188 c3 -5 -3 -10 -15 -10 -12 0 -18 5 -15 10 3 6 10 10 15 10 5 0 12 -4
15 -10z m70 -30 c-3 -5 0 -7 8 -5 7 3 23 2 36 -3 l22 -8 -24 -24 c-14 -14 -31
-30 -39 -36 -7 -7 -26 -26 -41 -43 -30 -33 -39 -31 -65 14 -10 18 -11 18 -12
2 0 -10 -4 -16 -10 -12 -5 3 -7 12 -3 20 3 10 -1 16 -13 17 -11 0 -23 2 -29 3
-5 2 -13 3 -18 4 -4 0 -1 15 8 31 16 31 38 39 51 18 4 -6 3 -9 -2 -5 -11 6
-50 -20 -41 -29 3 -3 12 -2 19 2 7 5 20 9 28 9 9 0 14 7 12 18 -2 14 5 17 35
17 21 0 45 5 53 10 20 13 33 13 25 0z m-144 -147 c13 -16 12 -17 -3 -4 -10 7
-18 15 -18 17 0 8 8 3 21 -13z"/>
<path d="M1042 830 c0 -14 2 -19 5 -12 2 6 2 18 0 25 -3 6 -5 1 -5 -13z"/>
<path d="M1046 739 c2 -4 -1 -9 -8 -11 -9 -3 -9 -6 0 -12 7 -4 12 -2 12 6 0
10 3 9 11 -2 9 -13 10 -13 5 2 -3 10 1 18 12 21 9 3 5 4 -10 4 -15 -1 -25 -4
-22 -8z"/>
<path d="M975 689 c-4 -6 -5 -12 -2 -15 2 -3 7 2 10 11 7 17 1 20 -8 4z"/>
<path d="M800 90 c0 -5 5 -10 10 -10 6 0 10 5 10 10 0 6 -4 10 -10 10 -5 0
-10 -4 -10 -10z"/>
<path d="M175 59 c-11 -17 1 -21 15 -4 8 9 8 15 2 15 -6 0 -14 -5 -17 -11z"/>
</g>
</svg>
